<?xml version="1.0" encoding="UTF-8" standalone="no"?>
<!-- Created with Inkscape (http://www.inkscape.org/) -->

<svg
   xmlns:dc="http://purl.org/dc/elements/1.1/"
   xmlns:cc="http://creativecommons.org/ns#"
   xmlns:rdf="http://www.w3.org/1999/02/22-rdf-syntax-ns#"
   xmlns:svg="http://www.w3.org/2000/svg"
   xmlns="http://www.w3.org/2000/svg"
   xmlns:sodipodi="http://sodipodi.sourceforge.net/DTD/sodipodi-0.dtd"
   xmlns:inkscape="http://www.inkscape.org/namespaces/inkscape"
   width="297mm"
   height="210mm"
   viewBox="0 0 1052.3622 744.09448"
   id="svg2"
   version="1.1"
   inkscape:version="0.91 r13725"
   sodipodi:docname="AEON_title2_SVG.svg">
  <defs
     id="defs4" />
  <sodipodi:namedview
     id="base"
     pagecolor="#ffffff"
     bordercolor="#666666"
     borderopacity="1.0"
     inkscape:pageopacity="0.0"
     inkscape:pageshadow="2"
     inkscape:zoom="0.36"
     inkscape:cx="544.67514"
     inkscape:cy="496.45224"
     inkscape:document-units="px"
     inkscape:current-layer="layer5"
     showgrid="false"
     inkscape:window-width="1024"
     inkscape:window-height="547"
     inkscape:window-x="-8"
     inkscape:window-y="-8"
     inkscape:window-maximized="1">
    <inkscape:grid
       type="xygrid"
       id="grid4160" />
  </sodipodi:namedview>
  <metadata
     id="metadata7">
    <rdf:RDF>
      <cc:Work
         rdf:about="">
        <dc:format>image/svg+xml</dc:format>
        <dc:type
           rdf:resource="http://purl.org/dc/dcmitype/StillImage" />
        <dc:title></dc:title>
      </cc:Work>
    </rdf:RDF>
  </metadata>
  <g
     inkscape:label="Layer 1"
     inkscape:groupmode="layer"
     id="layer1"
     style="display:inline"
     transform="translate(0,-308.26772)" />
  <g
     inkscape:groupmode="layer"
     id="layer2"
     inkscape:label="Layer 2"
     style="display:none"
     transform="translate(0,-308.26772)">
    <rect
       style="display:inline;opacity:1;fill:#5fbcd3;fill-opacity:1;fill-rule:evenodd;stroke:none;stroke-width:1;stroke-linecap:round;stroke-miterlimit:4;stroke-dasharray:none;stroke-opacity:1"
       id="rect4783-7-0"
       width="154.00676"
       height="73.714928"
       x="-533.05029"
       y="-346.10461"
       ry="36.857464"
       rx="77.00338"
       transform="matrix(0.3285079,-0.94450122,-0.94450122,-0.3285079,0,0)"
       inkscape:export-xdpi="90"
       inkscape:export-ydpi="90" />
    <rect
       style="display:inline;opacity:1;fill:#2c89a0;fill-opacity:1;fill-rule:evenodd;stroke:none;stroke-width:1;stroke-linecap:round;stroke-miterlimit:4;stroke-dasharray:none;stroke-opacity:1"
       id="rect4783-7-6-2"
       width="154.00676"
       height="73.714928"
       x="-310.17197"
       y="-536.10187"
       ry="36.857464"
       rx="77.00338"
       transform="matrix(0.76607019,-0.64275693,-0.64275693,-0.76607019,0,0)"
       inkscape:export-xdpi="90"
       inkscape:export-ydpi="90" />
    <rect
       style="display:inline;opacity:1;fill:#164450;fill-opacity:1;fill-rule:evenodd;stroke:none;stroke-width:1;stroke-linecap:round;stroke-miterlimit:4;stroke-dasharray:none;stroke-opacity:1"
       id="rect4783-7-5-4"
       width="154.00676"
       height="73.714928"
       x="4.3774595"
       y="508.1102"
       ry="36.857464"
       rx="77.00338"
       transform="matrix(0.99363137,-0.1126796,0.1126796,0.99363137,0,0)"
       inkscape:export-xdpi="90"
       inkscape:export-ydpi="90" />
    <path
       style="font-style:oblique;font-variant:normal;font-weight:bold;font-stretch:normal;font-size:447.19989014px;line-height:125%;font-family:'DejaVu Sans';-inkscape-font-specification:'DejaVu Sans Bold Oblique';text-align:start;letter-spacing:0px;word-spacing:0px;writing-mode:lr-tb;text-anchor:start;display:inline;fill:#ffffff;fill-opacity:1;stroke:none;stroke-width:1;stroke-linecap:butt;stroke-linejoin:miter;stroke-miterlimit:4;stroke-dasharray:none;stroke-opacity:1"
       d="m 166.8377,509.2329 c -3.57559,0.0127 -6.95422,0.685 -10.13648,2.01767 -3.20817,1.33276 -6.32326,3.36485 -9.34511,6.0961 -1.45924,-3.09797 -4.43837,-5.28591 -7.07564,-6.27309 -2.54256,-0.94969 -5.74428,-1.41786 -9.60486,-1.40422 -2.69464,0.01 -5.49229,0.21372 -8.39284,0.61262 -2.87472,0.37291 -5.82639,0.9276 -8.85529,1.66379 l -2.02257,10.61726 c 2.43132,-1.20046 4.98044,-2.1033 7.64706,-2.70865 2.69253,-0.60546 5.51552,-0.91325 8.46926,-0.9237 3.10919,-0.011 5.46871,0.42094 7.07822,1.29635 1.60944,0.84936 2.41733,2.12899 2.42337,3.83905 4.4e-4,0.12955 -0.0121,0.27216 -0.0375,0.42771 5.1e-4,0.15548 -0.0376,0.40169 -0.11417,0.73878 l -0.22893,1.12784 -7.96732,0.0281 c -8.18754,0.0289 -14.42676,1.52814 -18.71739,4.49707 -4.26479,2.94293 -6.38731,7.2126 -6.36754,12.80915 0.0129,3.65331 1.26683,6.5247 3.76159,8.61462 2.49477,2.08993 5.94456,3.12717 10.34927,3.1116 3.57557,-0.0127 6.95421,-0.68535 10.13647,-2.01801 3.20817,-1.33275 6.32325,-3.36448 9.3451,-6.09575 1.45944,3.09759 4.43856,5.28596 7.07564,6.27309 2.54258,0.9497 5.74428,1.41752 9.60487,1.40388 2.69463,-0.01 5.49229,-0.21374 8.39284,-0.61263 2.87472,-0.37291 5.82639,-0.92725 8.85529,-1.66342 l 2.02256,-10.61763 c -2.43132,1.20047 -4.98043,2.10365 -7.64705,2.70902 -2.69252,0.60544 -5.51553,0.91324 -8.46927,0.92368 -3.10918,0.011 -5.46871,-0.42094 -7.07822,-1.29635 -1.60944,-0.84936 -2.41732,-2.12899 -2.42336,-3.83905 -4.5e-4,-0.12953 0.0121,-0.27216 0.0374,-0.42772 -5e-4,-0.15546 0.0376,-0.40168 0.1142,-0.73877 l 0.22894,-1.12818 7.9673,-0.0281 c 8.18755,-0.0289 14.42677,-1.52778 18.71738,-4.49671 4.2648,-2.94292 6.38732,-7.2126 6.36755,-12.80915 -0.0129,-3.65331 -1.26682,-6.52507 -3.7616,-8.61498 -2.49477,-2.08992 -5.94455,-3.12682 -10.34925,-3.11125 z m -6.10785,9.27141 c 1.83959,-0.007 3.2923,0.4418 4.35781,1.34489 1.0396,0.9032 1.56221,2.14511 1.5678,3.72561 0.007,2.09872 -0.86817,3.68212 -2.62628,4.75066 -1.78395,1.09453 -4.41175,1.64807 -7.88368,1.66034 l -6.68491,0.0237 0.30549,-1.59463 c 0.63666,-3.1374 1.91054,-5.57733 3.82174,-7.32007 1.91131,-1.71683 4.29192,-2.58034 7.14203,-2.59042 z m -32.33678,16.16379 6.68491,-0.0237 -0.3055,1.59464 c -0.63667,3.13739 -1.91054,5.57733 -3.82175,7.32007 -1.9113,1.71683 -4.29193,2.58034 -7.14201,2.59041 -1.8396,0.007 -3.2923,-0.44179 -4.35781,-1.3449 -1.0396,-0.90317 -1.5622,-2.1451 -1.56779,-3.72559 -0.007,-2.09872 0.86816,-3.68247 2.62628,-4.75102 1.78393,-1.09452 4.41173,-1.64771 7.88367,-1.65998 z"
       id="path4183-6-6-4-6"
       inkscape:connector-curvature="0"
       sodipodi:nodetypes="scccsccccscscccscssscccsccccscscccscsssscscscccsscccscscs"
       inkscape:export-xdpi="90"
       inkscape:export-ydpi="90"
       inkscape:export-filename="EONLogo_v9_1.png" />
    <g
       id="g4430"
       transform="matrix(1.0411191,0,0,1.0411191,5.9662257,-22.215591)">
      <text
         inkscape:export-ydpi="90"
         inkscape:export-xdpi="90"
         sodipodi:linespacing="125%"
         id="text3369-2"
         y="563.4007"
         x="215.08539"
         style="font-style:normal;font-variant:normal;font-weight:bold;font-stretch:normal;font-size:87.43741608px;line-height:125%;font-family:Ebrima;-inkscape-font-specification:'Ebrima Bold';letter-spacing:-7.42079401px;word-spacing:0px;fill:#333333;fill-opacity:1;stroke:none;stroke-width:1px;stroke-linecap:butt;stroke-linejoin:miter;stroke-opacity:1"
         xml:space="preserve"><tspan
           style="font-style:normal;font-variant:normal;font-weight:bold;font-stretch:normal;font-family:Ebrima;-inkscape-font-specification:'Ebrima Bold';letter-spacing:0px;fill:#444444;fill-opacity:1"
           y="563.4007"
           x="215.08539"
           id="tspan3371-8"
           sodipodi:role="line">AEON</tspan></text>
      <text
         inkscape:export-ydpi="90"
         inkscape:export-xdpi="90"
         transform="scale(1.0094562,0.99063238)"
         sodipodi:linespacing="125%"
         id="text3369-6-7"
         y="586.36102"
         x="212.80258"
         style="font-style:normal;font-variant:normal;font-weight:bold;font-stretch:normal;font-size:61.07004929px;line-height:125%;font-family:Ebrima;-inkscape-font-specification:'Ebrima Bold';letter-spacing:-5.18300104px;word-spacing:0px;display:inline;fill:#333333;fill-opacity:1;stroke:none;stroke-width:1px;stroke-linecap:butt;stroke-linejoin:miter;stroke-opacity:1"
         xml:space="preserve"><tspan
           style="font-style:normal;font-variant:normal;font-weight:bold;font-stretch:normal;font-size:15.44276237px;font-family:Ebrima;-inkscape-font-specification:'Ebrima Bold';letter-spacing:0px;fill:#444444;fill-opacity:1"
           y="586.36102"
           x="212.80258"
           id="tspan3371-9-0"
           sodipodi:role="line">SERIOUS BLOCKCHAIN PRIVACY</tspan></text>
    </g>
  </g>
  <g
     inkscape:groupmode="layer"
     id="layer3"
     inkscape:label="Layer 4"
     style="display:inline" />
  <g
     inkscape:groupmode="layer"
     id="layer4"
     inkscape:label="Layer 3"
     style="display:none"
     transform="translate(0,-308.26772)">
    <g
       id="g5205">
      <rect
         style="display:inline;opacity:1;fill:#5fbcd3;fill-opacity:1;fill-rule:evenodd;stroke:none;stroke-width:1;stroke-linecap:round;stroke-miterlimit:4;stroke-dasharray:none;stroke-opacity:1"
         id="rect4783-7"
         width="145.89157"
         height="69.83062"
         x="-528.09674"
         y="-346.15106"
         ry="34.91531"
         rx="72.945786"
         transform="matrix(0.3285079,-0.94450122,-0.94450122,-0.3285079,0,0)"
         inkscape:export-xdpi="90"
         inkscape:export-ydpi="90" />
      <rect
         style="display:inline;opacity:1;fill:#2c89a0;fill-opacity:1;fill-rule:evenodd;stroke:none;stroke-width:1;stroke-linecap:round;stroke-miterlimit:4;stroke-dasharray:none;stroke-opacity:1"
         id="rect4783-7-6"
         width="145.89157"
         height="69.83062"
         x="-304.32605"
         y="-535.40839"
         ry="34.91531"
         rx="72.945786"
         transform="matrix(0.76607019,-0.64275693,-0.64275693,-0.76607019,0,0)"
         inkscape:export-xdpi="90"
         inkscape:export-ydpi="90" />
      <rect
         style="display:inline;opacity:1;fill:#164450;fill-opacity:1;fill-rule:evenodd;stroke:none;stroke-width:1;stroke-linecap:round;stroke-miterlimit:4;stroke-dasharray:none;stroke-opacity:1"
         id="rect4783-7-5"
         width="145.89159"
         height="69.83062"
         x="10.615487"
         y="510.10547"
         ry="34.91531"
         rx="72.945793"
         transform="matrix(0.99363138,-0.11267959,0.11267959,0.99363138,0,0)"
         inkscape:export-xdpi="90"
         inkscape:export-ydpi="90" />
      <path
         style="font-style:oblique;font-variant:normal;font-weight:bold;font-stretch:normal;font-size:447.19989014px;line-height:125%;font-family:'DejaVu Sans';-inkscape-font-specification:'DejaVu Sans Bold Oblique';text-align:start;letter-spacing:0px;word-spacing:0px;writing-mode:lr-tb;text-anchor:start;display:inline;fill:#ffffff;fill-opacity:1;stroke:none;stroke-width:1;stroke-linecap:butt;stroke-linejoin:miter;stroke-miterlimit:4;stroke-dasharray:none;stroke-opacity:1"
         d="m 167.71564,510.2569 c -3.38718,0.0114 -6.58778,0.64891 -9.60235,1.91134 -3.03913,1.26254 -5.99006,3.18757 -8.8527,5.77488 -1.38233,-2.93472 -4.20447,-5.00736 -6.70279,-5.94253 -2.40858,-0.89966 -5.44159,-1.34315 -9.09875,-1.33024 -2.55264,0.009 -5.20287,0.20247 -7.95058,0.58034 -2.72323,0.35326 -5.51939,0.87873 -8.38867,1.57612 l -1.91599,10.05782 c 2.3032,-1.13722 4.71799,-1.99249 7.2441,-2.56594 2.55065,-0.57355 5.2249,-0.86513 8.02298,-0.87503 2.94535,-0.01 5.18056,0.39876 6.70526,1.22803 1.52462,0.80461 2.28994,2.01682 2.29565,3.63677 4.3e-4,0.12286 -0.0114,0.25781 -0.0355,0.40519 4.5e-4,0.14723 -0.0357,0.38051 -0.10822,0.69984 l -0.21687,1.06839 -7.5475,0.0267 c -7.7561,0.0273 -13.66656,1.44761 -17.73108,4.2601 -4.04008,2.78786 -6.05074,6.83255 -6.03202,12.13418 0.0119,3.46081 1.20007,6.1809 3.56337,8.1607 2.36331,1.97979 5.63133,2.96238 9.80394,2.94764 3.38716,-0.0114 6.58775,-0.64923 9.60232,-1.91169 3.03914,-1.26251 5.99005,-3.18718 8.85269,-5.77453 1.38252,2.93436 4.20467,5.00742 6.7028,5.94253 2.40859,0.89966 5.44158,1.34283 9.09875,1.32991 2.55264,-0.009 5.20287,-0.20247 7.95059,-0.58034 2.72324,-0.35326 5.51938,-0.8784 8.38866,-1.57578 l 1.91601,-10.05814 c -2.30322,1.13721 -4.71801,1.99281 -7.24412,2.56627 -2.55063,0.57355 -5.22488,0.86512 -8.02299,0.875 -2.94535,0.01 -5.18055,-0.39875 -6.70525,-1.22803 -1.52462,-0.80461 -2.28994,-2.01681 -2.29565,-3.63675 -4.3e-4,-0.12272 0.0114,-0.25783 0.0355,-0.4052 -4.4e-4,-0.14723 0.0356,-0.3805 0.10809,-0.69983 l 0.21687,-1.06873 7.54748,-0.0267 c 7.75611,-0.0276 13.66656,-1.44727 17.73109,-4.25975 4.04007,-2.78786 6.05075,-6.83255 6.03203,-12.13421 -0.0114,-3.46079 -1.20007,-6.18121 -3.56341,-8.16101 -2.3633,-1.97981 -5.63131,-2.96206 -9.8039,-2.94732 z m -5.78602,8.78287 c 1.74267,-0.006 3.11883,0.41851 4.12818,1.27402 0.98484,0.85559 1.4799,2.03207 1.4852,3.52929 0.007,1.98814 -0.82242,3.48809 -2.48789,4.50033 -1.68995,1.03686 -4.17927,1.56122 -7.46826,1.57284 l -6.33266,0.0224 0.28939,-1.5106 c 0.60312,-2.97207 1.80986,-5.28343 3.62036,-6.93435 1.8106,-1.62637 4.06577,-2.44437 6.76568,-2.45391 z m -30.63282,15.31204 6.33264,-0.0223 -0.2894,1.5106 c -0.60312,2.97209 -1.80986,5.28346 -3.62036,6.93435 -1.81059,1.62637 -4.06576,2.44437 -6.76567,2.45393 -1.74265,0.006 -3.11881,-0.41854 -4.12818,-1.27405 -0.98483,-0.85557 -1.47988,-2.03206 -1.48518,-3.52927 -0.007,-1.98813 0.82243,-3.48844 2.4879,-4.50068 1.68992,-1.03684 4.17926,-1.56088 7.46825,-1.57251 z"
         id="path4183-6-6-4"
         inkscape:connector-curvature="0"
         sodipodi:nodetypes="scccsccccscscccscssscccsccccscscccscsssscscscccsscccscscs"
         inkscape:export-xdpi="90"
         inkscape:export-ydpi="90"
         inkscape:export-filename="EONLogo_v9_1.png" />
      <path
         style="fill:#e3dbe2;fill-opacity:1"
         d="m 263.96523,579.03318 c 48.18006,0.16874 96.36456,-0.13515 144.54765,-0.60144 -43.74315,7.37763 -88.15287,2.62857 -132.19939,4.48047 -15.36776,0.15285 -30.73548,0.33743 -46.10297,0.55737 11.25156,-1.47882 22.50316,-2.95745 33.75471,-4.4364 z"
         id="path4970"
         inkscape:connector-curvature="0" />
      <text
         transform="scale(0.99949356,1.0005067)"
         inkscape:export-ydpi="90"
         inkscape:export-xdpi="90"
         sodipodi:linespacing="125%"
         id="text3369"
         y="556.74731"
         x="217.61856"
         style="font-style:normal;font-variant:normal;font-weight:bold;font-stretch:normal;font-size:76.97805023px;line-height:125%;font-family:Ebrima;-inkscape-font-specification:'Ebrima Bold';letter-spacing:-6.53310871px;word-spacing:0px;fill:#444444;fill-opacity:1;stroke:none;stroke-width:1px;stroke-linecap:butt;stroke-linejoin:miter;stroke-opacity:1"
         xml:space="preserve"><tspan
           style="font-style:normal;font-variant:normal;font-weight:bold;font-stretch:normal;font-family:Ebrima;-inkscape-font-specification:'Ebrima Bold';letter-spacing:-3.31077576px;word-spacing:0px;fill:#444444;fill-opacity:1"
           y="556.74731"
           x="217.61856"
           id="tspan3371"
           sodipodi:role="line">AEON</tspan></text>
      <text
         inkscape:export-ydpi="90"
         inkscape:export-xdpi="90"
         transform="scale(1.0069044,0.99314295)"
         sodipodi:linespacing="125%"
         id="text3369-6"
         y="574.72308"
         x="216.50369"
         style="font-style:normal;font-variant:normal;font-weight:bold;font-stretch:normal;font-size:48.81516266px;line-height:125%;font-family:Ebrima;-inkscape-font-specification:'Ebrima Bold';letter-spacing:-4.14293337px;word-spacing:0px;display:inline;fill:#5fbcd3;fill-opacity:1;stroke:none;stroke-width:1px;stroke-linecap:butt;stroke-linejoin:miter;stroke-opacity:1"
         xml:space="preserve"><tspan
           style="font-style:normal;font-variant:normal;font-weight:bold;font-stretch:normal;font-size:12.34387302px;font-family:Ebrima;-inkscape-font-specification:'Ebrima Bold';letter-spacing:0px;fill:#333333;fill-opacity:1"
           y="574.72308"
           x="216.50369"
           id="tspan3371-9"
           sodipodi:role="line">SERIOUSLY ANONYMOUS E-CASH</tspan></text>
      <text
         inkscape:export-ydpi="90"
         inkscape:export-xdpi="90"
         transform="scale(1.1185386,0.89402369)"
         sodipodi:linespacing="125%"
         id="text3369-6-0"
         y="565.67975"
         x="372.46283"
         style="font-style:normal;font-variant:normal;font-weight:bold;font-stretch:normal;font-size:16.47429657px;line-height:125%;font-family:Ebrima;-inkscape-font-specification:'Ebrima Bold';letter-spacing:-1.39817035px;word-spacing:0px;display:inline;fill:#5fbcd3;fill-opacity:1;stroke:none;stroke-width:1px;stroke-linecap:butt;stroke-linejoin:miter;stroke-opacity:1"
         xml:space="preserve"><tspan
           style="font-style:normal;font-variant:normal;font-weight:bold;font-stretch:normal;font-size:4.16584921px;font-family:Ebrima;-inkscape-font-specification:'Ebrima Bold';letter-spacing:0px;fill:#333333;fill-opacity:1"
           y="565.67975"
           x="372.46283"
           id="tspan3371-9-07"
           sodipodi:role="line">TM</tspan></text>
    </g>
  </g>
  <g
     inkscape:groupmode="layer"
     id="layer5"
     inkscape:label="Layer 5">
    <g
       id="g5123">
      <rect
         ry="0"
         rx="0"
         y="201.46994"
         x="75.232666"
         height="333.29816"
         width="885.49792"
         id="rect4431"
         style="display:inline;fill:none;fill-opacity:1;stroke:none;stroke-width:0.55717444;stroke-miterlimit:4;stroke-dasharray:none;stroke-opacity:1" />
      <g
         transform="matrix(1.4466403,0,0,1.4466403,-185.80902,-38.360675)"
         id="g4482">
        <rect
           inkscape:export-ydpi="90"
           inkscape:export-xdpi="90"
           transform="matrix(0.32850789,-0.94450123,-0.94450123,-0.32850789,0,0)"
           rx="115.6423"
           ry="55.351891"
           y="-428.66183"
           x="-283.29333"
           height="110.70378"
           width="231.28459"
           id="rect4783-7-1-3"
           style="display:inline;opacity:1;fill:#5fbcd3;fill-opacity:1;fill-rule:evenodd;stroke:none;stroke-width:1;stroke-linecap:round;stroke-miterlimit:4;stroke-dasharray:none;stroke-opacity:1" />
        <rect
           inkscape:export-ydpi="90"
           inkscape:export-xdpi="90"
           transform="matrix(0.7952882,-0.60623154,-0.60623154,-0.7952882,0,0)"
           rx="115.64231"
           ry="55.351891"
           y="-459.17776"
           x="-49.370625"
           height="110.70378"
           width="231.28462"
           id="rect4783-7-6-5-7"
           style="display:inline;opacity:1;fill:#2c89a0;fill-opacity:1;fill-rule:evenodd;stroke:none;stroke-width:1;stroke-linecap:round;stroke-miterlimit:4;stroke-dasharray:none;stroke-opacity:1" />
        <rect
           inkscape:export-ydpi="90"
           inkscape:export-xdpi="90"
           transform="matrix(0.99363137,-0.11267961,0.11267961,0.99363137,0,0)"
           rx="115.64233"
           ry="55.351894"
           y="257.36475"
           x="148.31897"
           height="110.70379"
           width="231.28465"
           id="rect4783-7-5-2-3"
           style="display:inline;opacity:1;fill:#164450;fill-opacity:1;fill-rule:evenodd;stroke:none;stroke-width:1;stroke-linecap:round;stroke-miterlimit:4;stroke-dasharray:none;stroke-opacity:1" />
        <path
           inkscape:export-filename="EONLogo_v9_1.png"
           inkscape:export-ydpi="90"
           inkscape:export-xdpi="90"
           sodipodi:nodetypes="scccsccccscscccscssscccsccccscscccscsssscscscccsscccscscs"
           inkscape:connector-curvature="0"
           id="path4183-6-6-4-0-2"
           d="m 334.41339,246.29967 c -5.36973,0.0182 -10.44369,1.02872 -15.22278,3.03008 -4.81798,2.00152 -9.49613,5.05331 -14.03434,9.15503 -2.19141,-4.65246 -6.66542,-7.93827 -10.62602,-9.42081 -3.81839,-1.42625 -8.62668,-2.12932 -14.42445,-2.10885 -4.04675,0.0142 -8.24819,0.32097 -12.60421,0.92002 -4.31718,0.56004 -8.74999,1.39307 -13.29871,2.49866 l -3.03742,15.94484 c 3.65128,-1.80285 7.47948,-3.15873 11.48419,-4.06783 4.04361,-0.90927 8.28314,-1.37151 12.71896,-1.38721 4.66932,-0.016 8.21287,0.63216 10.63001,1.94683 2.41699,1.27557 3.63028,3.1973 3.6393,5.76544 0,0.19477 -0.0179,0.40871 -0.0562,0.64235 0,0.2334 -0.0566,0.60324 -0.17158,1.10947 l -0.34381,1.69374 -11.96516,0.0422 c -12.29592,0.0434 -21.66587,2.29492 -28.10941,6.75363 -6.40485,4.41963 -9.5924,10.83174 -9.5627,19.23653 0.0188,5.48649 1.90247,9.7987 5.64905,12.93732 3.74663,3.13859 8.92747,4.6963 15.5424,4.67294 5.3697,-0.018 10.4437,-1.02923 15.22274,-3.03065 4.81799,-2.00148 9.49615,-5.05269 14.03436,-9.15445 2.19168,4.65188 6.66574,7.93834 10.62605,9.42078 3.81839,1.42627 8.62662,2.12883 14.4244,2.10834 4.04676,-0.0142 8.24819,-0.32097 12.60421,-0.92001 4.31723,-0.56004 8.75,-1.39255 13.29871,-2.49813 l 3.03748,-15.94534 c -3.65134,1.80282 -7.47954,3.15923 -11.48424,4.06834 -4.04355,0.90927 -8.2831,1.37149 -12.71902,1.38717 -4.66927,0.016 -8.21282,-0.63215 -10.6299,-1.94684 -2.41704,-1.27555 -3.63029,-3.19728 -3.63936,-5.76539 0,-0.19457 0.0179,-0.40875 0.0562,-0.64237 0,-0.2334 0.0565,-0.60322 0.17138,-1.10946 l 0.34379,-1.69428 11.96515,-0.0423 c 12.29592,-0.0438 21.66586,-2.29436 28.10945,-6.75305 6.4048,-4.41964 9.59239,-10.83177 9.56269,-19.23659 -0.0182,-5.48645 -1.90252,-9.79918 -5.64914,-12.9378 -3.74658,-3.13863 -8.92742,-4.69581 -15.54232,-4.67244 z m -9.17267,13.92363 c 2.76272,-0.009 4.94437,0.6635 6.54447,2.01975 1.56132,1.35637 2.34612,3.22148 2.35454,5.59504 0.0111,3.15183 -1.30379,5.52973 -3.94413,7.13446 -2.67906,1.64375 -6.62543,2.47503 -11.83954,2.49345 l -10.03926,0.0354 0.45877,-2.39478 c 0.95611,-4.71167 2.86918,-8.3759 5.73941,-10.99316 2.87037,-2.5783 6.44553,-3.8751 10.72574,-3.89023 z m -48.56278,24.27447 10.03926,-0.0353 -0.45876,2.39479 c -0.95616,4.71171 -2.86925,8.37596 -5.73943,10.99315 -2.87037,2.57832 -6.44556,3.8751 -10.72576,3.89026 -2.76263,0.009 -4.94429,-0.66352 -6.5445,-2.01977 -1.56126,-1.35636 -2.34607,-3.22145 -2.35448,-5.59502 -0.0111,-3.15182 1.30384,-5.53029 3.94412,-7.13501 2.67907,-1.64372 6.62545,-2.4745 11.83955,-2.49294 z"
           style="font-style:oblique;font-variant:normal;font-weight:bold;font-stretch:normal;font-size:447.19989014px;line-height:125%;font-family:'DejaVu Sans';-inkscape-font-specification:'DejaVu Sans Bold Oblique';text-align:start;letter-spacing:0px;word-spacing:0px;writing-mode:lr-tb;text-anchor:start;display:inline;fill:#ffffff;fill-opacity:1;stroke:none;stroke-width:1;stroke-linecap:butt;stroke-linejoin:miter;stroke-miterlimit:4;stroke-dasharray:none;stroke-opacity:1" />
      </g>
      <g
         id="text3369-1-4"
         style="font-style:normal;font-variant:normal;font-weight:bold;font-stretch:normal;font-size:205.19270325px;line-height:125%;font-family:Ebrima;-inkscape-font-specification:'Ebrima Bold';letter-spacing:-17.41465569px;word-spacing:0px;fill:#373e48;fill-opacity:1;stroke:none;stroke-width:1px;stroke-linecap:butt;stroke-linejoin:miter;stroke-opacity:1"
         transform="scale(1.0498668,0.95250178)">
        <path
           id="path5115"
           style="font-style:normal;font-variant:normal;font-weight:bold;font-stretch:normal;font-family:Ebrima;-inkscape-font-specification:'Ebrima Bold';letter-spacing:-8.8252039px;word-spacing:0px;fill:#373e48;fill-opacity:1"
           d="m 526.74178,462.53381 -35.2675,0 -10.21955,-31.96116 -51.0978,0 -10.11936,31.96116 -35.06712,0 52.3001,-143.67497 38.37344,0 51.09779,143.67497 z m -52.90124,-56.80872 -15.42953,-48.29242 q -1.70326,-5.41036 -2.40461,-12.92474 l -0.80153,0 q -0.50096,6.31208 -2.50479,12.52397 l -15.62992,48.69319 36.77038,0 z" />
        <path
           id="path5117"
           style="font-style:normal;font-variant:normal;font-weight:bold;font-stretch:normal;font-family:Ebrima;-inkscape-font-specification:'Ebrima Bold';letter-spacing:-8.8252039px;word-spacing:0px;fill:#373e48;fill-opacity:1"
           d="m 622.0158,462.53381 -86.1649,0 0,-143.67497 82.85857,0 0,26.35043 -50.49664,0 0,31.96117 46.98993,0 0,26.25024 -46.98993,0 0,32.8629 53.80297,0 0,26.25023 z" />
        <path
           id="path5119"
           style="font-style:normal;font-variant:normal;font-weight:bold;font-stretch:normal;font-family:Ebrima;-inkscape-font-specification:'Ebrima Bold';letter-spacing:-8.8252039px;word-spacing:0px;fill:#373e48;fill-opacity:1"
           d="m 697.15129,465.03861 q -30.85905,0 -50.29625,-20.03835 -19.4372,-20.13854 -19.4372,-52.40029 0,-34.06519 19.73777,-55.10546 19.73778,-21.04027 52.30009,-21.04027 30.75887,0 49.69511,20.13854 19.03643,20.13855 19.03643,53.10163 0,33.86481 -19.73777,54.60451 -19.63758,20.73969 -51.29818,20.73969 z m 1.40269,-120.73106 q -17.0326,0 -27.05177,12.82454 -10.01918,12.72436 -10.01918,33.76462 0,21.34085 10.01918,33.76462 10.01917,12.42378 26.25023,12.42378 16.73203,0 26.55082,-12.02301 9.81879,-12.1232 9.81879,-33.56424 0,-22.34276 -9.51822,-34.76653 -9.51821,-12.42378 -26.04985,-12.42378 z" />
        <path
           id="path5121"
           style="font-style:normal;font-variant:normal;font-weight:bold;font-stretch:normal;font-family:Ebrima;-inkscape-font-specification:'Ebrima Bold';letter-spacing:-8.8252039px;word-spacing:0px;fill:#373e48;fill-opacity:1"
           d="m 912.35483,462.53381 -32.66251,0 -59.21333,-90.27276 q -5.20997,-7.91515 -7.2138,-11.92282 l -0.40077,0 q 0.80154,7.61457 0.80154,23.24448 l 0,78.9511 -30.55849,0 0,-143.67497 34.86673,0 57.00911,87.4674 q 3.90747,5.91132 7.2138,11.72244 l 0.40077,0 q -0.80153,-5.00959 -0.80153,-19.73778 l 0,-79.45206 30.55848,0 0,143.67497 z" />
      </g>
    </g>
  </g>
</svg>
