<?xml version="1.0" encoding="UTF-8" standalone="no"?>
<!-- Created with Inkscape (http://www.inkscape.org/) -->

<svg
   xmlns:dc="http://purl.org/dc/elements/1.1/"
   xmlns:cc="http://creativecommons.org/ns#"
   xmlns:rdf="http://www.w3.org/1999/02/22-rdf-syntax-ns#"
   xmlns:svg="http://www.w3.org/2000/svg"
   xmlns="http://www.w3.org/2000/svg"
   xmlns:sodipodi="http://sodipodi.sourceforge.net/DTD/sodipodi-0.dtd"
   xmlns:inkscape="http://www.inkscape.org/namespaces/inkscape"
   width="297mm"
   height="210mm"
   viewBox="0 0 1052.3622 744.09448"
   id="svg2"
   version="1.1"
   inkscape:version="0.91 r13725"
   sodipodi:docname="AEON_title1_SVG.svg">
  <defs
     id="defs4" />
  <sodipodi:namedview
     id="base"
     pagecolor="#ffffff"
     bordercolor="#666666"
     borderopacity="1.0"
     inkscape:pageopacity="0.0"
     inkscape:pageshadow="2"
     inkscape:zoom="0.32"
     inkscape:cx="494.98277"
     inkscape:cy="496.45224"
     inkscape:document-units="px"
     inkscape:current-layer="layer5"
     showgrid="false"
     inkscape:window-width="1024"
     inkscape:window-height="547"
     inkscape:window-x="-8"
     inkscape:window-y="-8"
     inkscape:window-maximized="1">
    <inkscape:grid
       type="xygrid"
       id="grid4160" />
  </sodipodi:namedview>
  <metadata
     id="metadata7">
    <rdf:RDF>
      <cc:Work
         rdf:about="">
        <dc:format>image/svg+xml</dc:format>
        <dc:type
           rdf:resource="http://purl.org/dc/dcmitype/StillImage" />
        <dc:title />
      </cc:Work>
    </rdf:RDF>
  </metadata>
  <g
     inkscape:label="Layer 1"
     inkscape:groupmode="layer"
     id="layer1"
     style="display:inline"
     transform="translate(0,-308.26772)" />
  <g
     inkscape:groupmode="layer"
     id="layer2"
     inkscape:label="Layer 2"
     style="display:none"
     transform="translate(0,-308.26772)">
    <rect
       style="display:inline;opacity:1;fill:#5fbcd3;fill-opacity:1;fill-rule:evenodd;stroke:none;stroke-width:1;stroke-linecap:round;stroke-miterlimit:4;stroke-dasharray:none;stroke-opacity:1"
       id="rect4783-7-0"
       width="154.00676"
       height="73.714928"
       x="-533.05029"
       y="-346.10461"
       ry="36.857464"
       rx="77.00338"
       transform="matrix(0.3285079,-0.94450122,-0.94450122,-0.3285079,0,0)"
       inkscape:export-xdpi="90"
       inkscape:export-ydpi="90" />
    <rect
       style="display:inline;opacity:1;fill:#2c89a0;fill-opacity:1;fill-rule:evenodd;stroke:none;stroke-width:1;stroke-linecap:round;stroke-miterlimit:4;stroke-dasharray:none;stroke-opacity:1"
       id="rect4783-7-6-2"
       width="154.00676"
       height="73.714928"
       x="-310.17197"
       y="-536.10187"
       ry="36.857464"
       rx="77.00338"
       transform="matrix(0.76607019,-0.64275693,-0.64275693,-0.76607019,0,0)"
       inkscape:export-xdpi="90"
       inkscape:export-ydpi="90" />
    <rect
       style="display:inline;opacity:1;fill:#164450;fill-opacity:1;fill-rule:evenodd;stroke:none;stroke-width:1;stroke-linecap:round;stroke-miterlimit:4;stroke-dasharray:none;stroke-opacity:1"
       id="rect4783-7-5-4"
       width="154.00676"
       height="73.714928"
       x="4.3774595"
       y="508.1102"
       ry="36.857464"
       rx="77.00338"
       transform="matrix(0.99363137,-0.1126796,0.1126796,0.99363137,0,0)"
       inkscape:export-xdpi="90"
       inkscape:export-ydpi="90" />
    <path
       style="font-style:oblique;font-variant:normal;font-weight:bold;font-stretch:normal;font-size:447.19989014px;line-height:125%;font-family:'DejaVu Sans';-inkscape-font-specification:'DejaVu Sans Bold Oblique';text-align:start;letter-spacing:0px;word-spacing:0px;writing-mode:lr-tb;text-anchor:start;display:inline;fill:#ffffff;fill-opacity:1;stroke:none;stroke-width:1;stroke-linecap:butt;stroke-linejoin:miter;stroke-miterlimit:4;stroke-dasharray:none;stroke-opacity:1"
       d="m 166.8377,509.2329 c -3.57559,0.0127 -6.95422,0.685 -10.13648,2.01767 -3.20817,1.33276 -6.32326,3.36485 -9.34511,6.0961 -1.45924,-3.09797 -4.43837,-5.28591 -7.07564,-6.27309 -2.54256,-0.94969 -5.74428,-1.41786 -9.60486,-1.40422 -2.69464,0.01 -5.49229,0.21372 -8.39284,0.61262 -2.87472,0.37291 -5.82639,0.9276 -8.85529,1.66379 l -2.02257,10.61726 c 2.43132,-1.20046 4.98044,-2.1033 7.64706,-2.70865 2.69253,-0.60546 5.51552,-0.91325 8.46926,-0.9237 3.10919,-0.011 5.46871,0.42094 7.07822,1.29635 1.60944,0.84936 2.41733,2.12899 2.42337,3.83905 4.4e-4,0.12955 -0.0121,0.27216 -0.0375,0.42771 5.1e-4,0.15548 -0.0376,0.40169 -0.11417,0.73878 l -0.22893,1.12784 -7.96732,0.0281 c -8.18754,0.0289 -14.42676,1.52814 -18.71739,4.49707 -4.26479,2.94293 -6.38731,7.2126 -6.36754,12.80915 0.0129,3.65331 1.26683,6.5247 3.76159,8.61462 2.49477,2.08993 5.94456,3.12717 10.34927,3.1116 3.57557,-0.0127 6.95421,-0.68535 10.13647,-2.01801 3.20817,-1.33275 6.32325,-3.36448 9.3451,-6.09575 1.45944,3.09759 4.43856,5.28596 7.07564,6.27309 2.54258,0.9497 5.74428,1.41752 9.60487,1.40388 2.69463,-0.01 5.49229,-0.21374 8.39284,-0.61263 2.87472,-0.37291 5.82639,-0.92725 8.85529,-1.66342 l 2.02256,-10.61763 c -2.43132,1.20047 -4.98043,2.10365 -7.64705,2.70902 -2.69252,0.60544 -5.51553,0.91324 -8.46927,0.92368 -3.10918,0.011 -5.46871,-0.42094 -7.07822,-1.29635 -1.60944,-0.84936 -2.41732,-2.12899 -2.42336,-3.83905 -4.5e-4,-0.12953 0.0121,-0.27216 0.0374,-0.42772 -5e-4,-0.15546 0.0376,-0.40168 0.1142,-0.73877 l 0.22894,-1.12818 7.9673,-0.0281 c 8.18755,-0.0289 14.42677,-1.52778 18.71738,-4.49671 4.2648,-2.94292 6.38732,-7.2126 6.36755,-12.80915 -0.0129,-3.65331 -1.26682,-6.52507 -3.7616,-8.61498 -2.49477,-2.08992 -5.94455,-3.12682 -10.34925,-3.11125 z m -6.10785,9.27141 c 1.83959,-0.007 3.2923,0.4418 4.35781,1.34489 1.0396,0.9032 1.56221,2.14511 1.5678,3.72561 0.007,2.09872 -0.86817,3.68212 -2.62628,4.75066 -1.78395,1.09453 -4.41175,1.64807 -7.88368,1.66034 l -6.68491,0.0237 0.30549,-1.59463 c 0.63666,-3.1374 1.91054,-5.57733 3.82174,-7.32007 1.91131,-1.71683 4.29192,-2.58034 7.14203,-2.59042 z m -32.33678,16.16379 6.68491,-0.0237 -0.3055,1.59464 c -0.63667,3.13739 -1.91054,5.57733 -3.82175,7.32007 -1.9113,1.71683 -4.29193,2.58034 -7.14201,2.59041 -1.8396,0.007 -3.2923,-0.44179 -4.35781,-1.3449 -1.0396,-0.90317 -1.5622,-2.1451 -1.56779,-3.72559 -0.007,-2.09872 0.86816,-3.68247 2.62628,-4.75102 1.78393,-1.09452 4.41173,-1.64771 7.88367,-1.65998 z"
       id="path4183-6-6-4-6"
       inkscape:connector-curvature="0"
       sodipodi:nodetypes="scccsccccscscccscssscccsccccscscccscsssscscscccsscccscscs"
       inkscape:export-xdpi="90"
       inkscape:export-ydpi="90"
       inkscape:export-filename="EONLogo_v9_1.png" />
    <g
       id="g4430"
       transform="matrix(1.0411191,0,0,1.0411191,5.9662257,-22.215591)">
      <text
         inkscape:export-ydpi="90"
         inkscape:export-xdpi="90"
         sodipodi:linespacing="125%"
         id="text3369-2"
         y="563.4007"
         x="215.08539"
         style="font-style:normal;font-variant:normal;font-weight:bold;font-stretch:normal;font-size:87.43741608px;line-height:125%;font-family:Ebrima;-inkscape-font-specification:'Ebrima Bold';letter-spacing:-7.42079401px;word-spacing:0px;fill:#333333;fill-opacity:1;stroke:none;stroke-width:1px;stroke-linecap:butt;stroke-linejoin:miter;stroke-opacity:1"
         xml:space="preserve"><tspan
           style="font-style:normal;font-variant:normal;font-weight:bold;font-stretch:normal;font-family:Ebrima;-inkscape-font-specification:'Ebrima Bold';letter-spacing:0px;fill:#444444;fill-opacity:1"
           y="563.4007"
           x="215.08539"
           id="tspan3371-8"
           sodipodi:role="line">AEON</tspan></text>
      <text
         inkscape:export-ydpi="90"
         inkscape:export-xdpi="90"
         transform="scale(1.0094562,0.99063238)"
         sodipodi:linespacing="125%"
         id="text3369-6-7"
         y="586.36102"
         x="212.80258"
         style="font-style:normal;font-variant:normal;font-weight:bold;font-stretch:normal;font-size:61.07004929px;line-height:125%;font-family:Ebrima;-inkscape-font-specification:'Ebrima Bold';letter-spacing:-5.18300104px;word-spacing:0px;display:inline;fill:#333333;fill-opacity:1;stroke:none;stroke-width:1px;stroke-linecap:butt;stroke-linejoin:miter;stroke-opacity:1"
         xml:space="preserve"><tspan
           style="font-style:normal;font-variant:normal;font-weight:bold;font-stretch:normal;font-size:15.44276237px;font-family:Ebrima;-inkscape-font-specification:'Ebrima Bold';letter-spacing:0px;fill:#444444;fill-opacity:1"
           y="586.36102"
           x="212.80258"
           id="tspan3371-9-0"
           sodipodi:role="line">SERIOUS BLOCKCHAIN PRIVACY</tspan></text>
    </g>
  </g>
  <g
     inkscape:groupmode="layer"
     id="layer3"
     inkscape:label="Layer 4"
     style="display:inline" />
  <g
     inkscape:groupmode="layer"
     id="layer4"
     inkscape:label="Layer 3"
     style="display:none"
     transform="translate(0,-308.26772)">
    <g
       id="g5205">
      <rect
         style="display:inline;opacity:1;fill:#5fbcd3;fill-opacity:1;fill-rule:evenodd;stroke:none;stroke-width:1;stroke-linecap:round;stroke-miterlimit:4;stroke-dasharray:none;stroke-opacity:1"
         id="rect4783-7"
         width="145.89157"
         height="69.83062"
         x="-528.09674"
         y="-346.15106"
         ry="34.91531"
         rx="72.945786"
         transform="matrix(0.3285079,-0.94450122,-0.94450122,-0.3285079,0,0)"
         inkscape:export-xdpi="90"
         inkscape:export-ydpi="90" />
      <rect
         style="display:inline;opacity:1;fill:#2c89a0;fill-opacity:1;fill-rule:evenodd;stroke:none;stroke-width:1;stroke-linecap:round;stroke-miterlimit:4;stroke-dasharray:none;stroke-opacity:1"
         id="rect4783-7-6"
         width="145.89157"
         height="69.83062"
         x="-304.32605"
         y="-535.40839"
         ry="34.91531"
         rx="72.945786"
         transform="matrix(0.76607019,-0.64275693,-0.64275693,-0.76607019,0,0)"
         inkscape:export-xdpi="90"
         inkscape:export-ydpi="90" />
      <rect
         style="display:inline;opacity:1;fill:#164450;fill-opacity:1;fill-rule:evenodd;stroke:none;stroke-width:1;stroke-linecap:round;stroke-miterlimit:4;stroke-dasharray:none;stroke-opacity:1"
         id="rect4783-7-5"
         width="145.89159"
         height="69.83062"
         x="10.615487"
         y="510.10547"
         ry="34.91531"
         rx="72.945793"
         transform="matrix(0.99363138,-0.11267959,0.11267959,0.99363138,0,0)"
         inkscape:export-xdpi="90"
         inkscape:export-ydpi="90" />
      <path
         style="font-style:oblique;font-variant:normal;font-weight:bold;font-stretch:normal;font-size:447.19989014px;line-height:125%;font-family:'DejaVu Sans';-inkscape-font-specification:'DejaVu Sans Bold Oblique';text-align:start;letter-spacing:0px;word-spacing:0px;writing-mode:lr-tb;text-anchor:start;display:inline;fill:#ffffff;fill-opacity:1;stroke:none;stroke-width:1;stroke-linecap:butt;stroke-linejoin:miter;stroke-miterlimit:4;stroke-dasharray:none;stroke-opacity:1"
         d="m 167.71564,510.2569 c -3.38718,0.0114 -6.58778,0.64891 -9.60235,1.91134 -3.03913,1.26254 -5.99006,3.18757 -8.8527,5.77488 -1.38233,-2.93472 -4.20447,-5.00736 -6.70279,-5.94253 -2.40858,-0.89966 -5.44159,-1.34315 -9.09875,-1.33024 -2.55264,0.009 -5.20287,0.20247 -7.95058,0.58034 -2.72323,0.35326 -5.51939,0.87873 -8.38867,1.57612 l -1.91599,10.05782 c 2.3032,-1.13722 4.71799,-1.99249 7.2441,-2.56594 2.55065,-0.57355 5.2249,-0.86513 8.02298,-0.87503 2.94535,-0.01 5.18056,0.39876 6.70526,1.22803 1.52462,0.80461 2.28994,2.01682 2.29565,3.63677 4.3e-4,0.12286 -0.0114,0.25781 -0.0355,0.40519 4.5e-4,0.14723 -0.0357,0.38051 -0.10822,0.69984 l -0.21687,1.06839 -7.5475,0.0267 c -7.7561,0.0273 -13.66656,1.44761 -17.73108,4.2601 -4.04008,2.78786 -6.05074,6.83255 -6.03202,12.13418 0.0119,3.46081 1.20007,6.1809 3.56337,8.1607 2.36331,1.97979 5.63133,2.96238 9.80394,2.94764 3.38716,-0.0114 6.58775,-0.64923 9.60232,-1.91169 3.03914,-1.26251 5.99005,-3.18718 8.85269,-5.77453 1.38252,2.93436 4.20467,5.00742 6.7028,5.94253 2.40859,0.89966 5.44158,1.34283 9.09875,1.32991 2.55264,-0.009 5.20287,-0.20247 7.95059,-0.58034 2.72324,-0.35326 5.51938,-0.8784 8.38866,-1.57578 l 1.91601,-10.05814 c -2.30322,1.13721 -4.71801,1.99281 -7.24412,2.56627 -2.55063,0.57355 -5.22488,0.86512 -8.02299,0.875 -2.94535,0.01 -5.18055,-0.39875 -6.70525,-1.22803 -1.52462,-0.80461 -2.28994,-2.01681 -2.29565,-3.63675 -4.3e-4,-0.12272 0.0114,-0.25783 0.0355,-0.4052 -4.4e-4,-0.14723 0.0356,-0.3805 0.10809,-0.69983 l 0.21687,-1.06873 7.54748,-0.0267 c 7.75611,-0.0276 13.66656,-1.44727 17.73109,-4.25975 4.04007,-2.78786 6.05075,-6.83255 6.03203,-12.13421 -0.0114,-3.46079 -1.20007,-6.18121 -3.56341,-8.16101 -2.3633,-1.97981 -5.63131,-2.96206 -9.8039,-2.94732 z m -5.78602,8.78287 c 1.74267,-0.006 3.11883,0.41851 4.12818,1.27402 0.98484,0.85559 1.4799,2.03207 1.4852,3.52929 0.007,1.98814 -0.82242,3.48809 -2.48789,4.50033 -1.68995,1.03686 -4.17927,1.56122 -7.46826,1.57284 l -6.33266,0.0224 0.28939,-1.5106 c 0.60312,-2.97207 1.80986,-5.28343 3.62036,-6.93435 1.8106,-1.62637 4.06577,-2.44437 6.76568,-2.45391 z m -30.63282,15.31204 6.33264,-0.0223 -0.2894,1.5106 c -0.60312,2.97209 -1.80986,5.28346 -3.62036,6.93435 -1.81059,1.62637 -4.06576,2.44437 -6.76567,2.45393 -1.74265,0.006 -3.11881,-0.41854 -4.12818,-1.27405 -0.98483,-0.85557 -1.47988,-2.03206 -1.48518,-3.52927 -0.007,-1.98813 0.82243,-3.48844 2.4879,-4.50068 1.68992,-1.03684 4.17926,-1.56088 7.46825,-1.57251 z"
         id="path4183-6-6-4"
         inkscape:connector-curvature="0"
         sodipodi:nodetypes="scccsccccscscccscssscccsccccscscccscsssscscscccsscccscscs"
         inkscape:export-xdpi="90"
         inkscape:export-ydpi="90"
         inkscape:export-filename="EONLogo_v9_1.png" />
      <path
         style="fill:#e3dbe2;fill-opacity:1"
         d="m 263.96523,579.03318 c 48.18006,0.16874 96.36456,-0.13515 144.54765,-0.60144 -43.74315,7.37763 -88.15287,2.62857 -132.19939,4.48047 -15.36776,0.15285 -30.73548,0.33743 -46.10297,0.55737 11.25156,-1.47882 22.50316,-2.95745 33.75471,-4.4364 z"
         id="path4970"
         inkscape:connector-curvature="0" />
      <text
         transform="scale(0.99949356,1.0005067)"
         inkscape:export-ydpi="90"
         inkscape:export-xdpi="90"
         sodipodi:linespacing="125%"
         id="text3369"
         y="556.74731"
         x="217.61856"
         style="font-style:normal;font-variant:normal;font-weight:bold;font-stretch:normal;font-size:76.97805023px;line-height:125%;font-family:Ebrima;-inkscape-font-specification:'Ebrima Bold';letter-spacing:-6.53310871px;word-spacing:0px;fill:#444444;fill-opacity:1;stroke:none;stroke-width:1px;stroke-linecap:butt;stroke-linejoin:miter;stroke-opacity:1"
         xml:space="preserve"><tspan
           style="font-style:normal;font-variant:normal;font-weight:bold;font-stretch:normal;font-family:Ebrima;-inkscape-font-specification:'Ebrima Bold';letter-spacing:-3.31077576px;word-spacing:0px;fill:#444444;fill-opacity:1"
           y="556.74731"
           x="217.61856"
           id="tspan3371"
           sodipodi:role="line">AEON</tspan></text>
      <text
         inkscape:export-ydpi="90"
         inkscape:export-xdpi="90"
         transform="scale(1.0069044,0.99314295)"
         sodipodi:linespacing="125%"
         id="text3369-6"
         y="574.72308"
         x="216.50369"
         style="font-style:normal;font-variant:normal;font-weight:bold;font-stretch:normal;font-size:48.81516266px;line-height:125%;font-family:Ebrima;-inkscape-font-specification:'Ebrima Bold';letter-spacing:-4.14293337px;word-spacing:0px;display:inline;fill:#5fbcd3;fill-opacity:1;stroke:none;stroke-width:1px;stroke-linecap:butt;stroke-linejoin:miter;stroke-opacity:1"
         xml:space="preserve"><tspan
           style="font-style:normal;font-variant:normal;font-weight:bold;font-stretch:normal;font-size:12.34387302px;font-family:Ebrima;-inkscape-font-specification:'Ebrima Bold';letter-spacing:0px;fill:#333333;fill-opacity:1"
           y="574.72308"
           x="216.50369"
           id="tspan3371-9"
           sodipodi:role="line">SERIOUSLY ANONYMOUS E-CASH</tspan></text>
      <text
         inkscape:export-ydpi="90"
         inkscape:export-xdpi="90"
         transform="scale(1.1185386,0.89402369)"
         sodipodi:linespacing="125%"
         id="text3369-6-0"
         y="565.67975"
         x="372.46283"
         style="font-style:normal;font-variant:normal;font-weight:bold;font-stretch:normal;font-size:16.47429657px;line-height:125%;font-family:Ebrima;-inkscape-font-specification:'Ebrima Bold';letter-spacing:-1.39817035px;word-spacing:0px;display:inline;fill:#5fbcd3;fill-opacity:1;stroke:none;stroke-width:1px;stroke-linecap:butt;stroke-linejoin:miter;stroke-opacity:1"
         xml:space="preserve"><tspan
           style="font-style:normal;font-variant:normal;font-weight:bold;font-stretch:normal;font-size:4.16584921px;font-family:Ebrima;-inkscape-font-specification:'Ebrima Bold';letter-spacing:0px;fill:#333333;fill-opacity:1"
           y="565.67975"
           x="372.46283"
           id="tspan3371-9-07"
           sodipodi:role="line">TM</tspan></text>
    </g>
  </g>
  <g
     inkscape:groupmode="layer"
     id="layer5"
     inkscape:label="Layer 5">
    <g
       id="g5291">
      <rect
         ry="0"
         rx="0"
         y="202.31242"
         x="80.788223"
         height="333.29816"
         width="885.49792"
         id="rect4431"
         style="display:inline;fill:none;fill-opacity:1;stroke:none;stroke-width:0.55717444;stroke-miterlimit:4;stroke-dasharray:none;stroke-opacity:1" />
      <rect
         style="display:inline;opacity:1;fill:#5fbcd3;fill-opacity:1;fill-rule:evenodd;stroke:none;stroke-width:1;stroke-linecap:round;stroke-miterlimit:4;stroke-dasharray:none;stroke-opacity:1"
         id="rect4783-7-1-3"
         width="341.60892"
         height="163.51024"
         x="-432.14108"
         y="-453.5231"
         ry="81.755119"
         rx="170.80446"
         transform="matrix(0.3285079,-0.94450122,-0.94450122,-0.3285079,0,0)"
         inkscape:export-xdpi="90"
         inkscape:export-ydpi="90" />
      <rect
         style="display:inline;opacity:1;fill:#2c89a0;fill-opacity:1;fill-rule:evenodd;stroke:none;stroke-width:1;stroke-linecap:round;stroke-miterlimit:4;stroke-dasharray:none;stroke-opacity:1"
         id="rect4783-7-6-5-7"
         width="341.60898"
         height="163.51024"
         x="-183.5032"
         y="-536.00964"
         ry="81.755119"
         rx="170.80449"
         transform="matrix(0.7952882,-0.60623153,-0.60623153,-0.7952882,0,0)"
         inkscape:export-xdpi="90"
         inkscape:export-ydpi="90" />
      <rect
         style="display:inline;opacity:1;fill:#164450;fill-opacity:1;fill-rule:evenodd;stroke:none;stroke-width:1;stroke-linecap:round;stroke-miterlimit:4;stroke-dasharray:none;stroke-opacity:1"
         id="rect4783-7-5-2-3"
         width="341.60901"
         height="163.51025"
         x="51.215736"
         y="314.7489"
         ry="81.755127"
         rx="170.8045"
         transform="matrix(0.99363137,-0.11267961,0.11267961,0.99363137,0,0)"
         inkscape:export-xdpi="90"
         inkscape:export-ydpi="90" />
      <path
         style="font-style:oblique;font-variant:normal;font-weight:bold;font-stretch:normal;font-size:447.19989014px;line-height:125%;font-family:'DejaVu Sans';-inkscape-font-specification:'DejaVu Sans Bold Oblique';text-align:start;letter-spacing:0px;word-spacing:0px;writing-mode:lr-tb;text-anchor:start;display:inline;fill:#ffffff;fill-opacity:1;stroke:none;stroke-width:1;stroke-linecap:butt;stroke-linejoin:miter;stroke-miterlimit:4;stroke-dasharray:none;stroke-opacity:1"
         d="m 319.78039,317.73565 c -7.93113,0.0269 -15.4254,1.51942 -22.48415,4.47545 -7.11619,2.95625 -14.02585,7.46377 -20.72881,13.52204 -3.23673,-6.87172 -9.84487,-11.72488 -15.69471,-13.9146 -5.63979,-2.10658 -12.74166,-3.14502 -21.30501,-3.11479 -5.97708,0.021 -12.18263,0.47408 -18.6165,1.35888 -6.37651,0.82718 -12.9238,2.05757 -19.64229,3.69054 l -4.48629,23.55063 c 5.39297,-2.66282 11.04725,-4.66546 16.96223,-6.00821 5.97244,-1.343 12.23425,-2.02573 18.78599,-2.04892 6.89662,-0.0236 12.13046,0.93371 15.7006,2.87548 3.56991,1.88403 5.36194,4.72244 5.37527,8.5156 0,0.28767 -0.0264,0.60366 -0.083,0.94875 0,0.34474 -0.0836,0.89099 -0.25343,1.6387 l -0.5078,2.50166 -17.67263,0.0623 c -18.16116,0.0641 -32.00063,3.38961 -41.51779,9.97516 -9.46,6.52782 -14.16804,15.99855 -14.12417,28.41248 0.0278,8.10359 2.80996,14.47275 8.34369,19.10851 5.53379,4.63572 13.18593,6.93647 22.95623,6.90197 7.93108,-0.0266 15.42541,-1.52018 22.48409,-4.47629 7.1162,-2.9562 14.02587,-7.46286 20.72884,-13.52119 3.23713,6.87086 9.84534,11.72498 15.69475,13.91456 5.63979,2.10661 12.74158,3.1443 21.30494,3.11403 5.97709,-0.021 12.18263,-0.47407 18.6165,-1.35886 6.37658,-0.82718 12.92381,-2.05681 19.64229,-3.68975 l 4.48637,-23.55138 c -5.39305,2.66278 -11.04733,4.6662 -16.9623,6.00897 -5.97235,1.34299 -12.23419,2.0257 -18.78608,2.04886 -6.89654,0.0236 -12.13039,-0.93369 -15.70043,-2.8755 -3.56998,-1.884 -5.36196,-4.72241 -5.37536,-8.51552 0,-0.28738 0.0264,-0.60373 0.083,-0.94879 0,-0.34473 0.0834,-0.89096 0.25313,-1.63868 l 0.50778,-2.50246 17.67261,-0.0625 c 18.16115,-0.0647 32.00062,-3.38878 41.51784,-9.9743 9.45994,-6.52784 14.16803,-15.99859 14.12416,-28.41257 -0.0269,-8.10353 -2.81003,-14.47346 -8.34382,-19.10922 -5.53372,-4.63578 -13.18586,-6.93574 -22.95611,-6.90123 z m -13.54809,20.56529 c 4.08055,-0.0133 7.30286,0.98 9.66622,2.98319 2.30608,2.00337 3.46524,4.75815 3.47767,8.26391 0.0164,4.65527 -1.9257,8.16745 -5.8255,10.53765 -3.95699,2.42783 -9.78581,3.65563 -17.48708,3.68284 l -14.82806,0.0523 0.67761,-3.5371 c 1.41218,-6.95917 4.23779,-12.37126 8.47714,-16.23697 4.23956,-3.80817 9.5201,-5.72355 15.842,-5.7459 z m -71.72756,35.85356 14.82805,-0.0521 -0.67759,3.53712 c -1.41225,6.95923 -4.2379,12.37135 -8.47717,16.23696 -4.23956,3.8082 -9.52014,5.72355 -15.84203,5.74594 -4.08042,0.0133 -7.30275,-0.98002 -9.66627,-2.98321 -2.30599,-2.00336 -3.46516,-4.75811 -3.47758,-8.26389 -0.0164,-4.65525 1.92578,-8.16827 5.82549,-10.53845 3.95701,-2.42779 9.78584,-3.65486 17.4871,-3.68209 z"
         id="path4183-6-6-4-0-2"
         inkscape:connector-curvature="0"
         sodipodi:nodetypes="scccsccccscscccscssscccsccccscscccscsssscscscccsscccscscs"
         inkscape:export-xdpi="90"
         inkscape:export-ydpi="90"
         inkscape:export-filename="EONLogo_v9_1.png" />
      <g
         id="text3369-1-4"
         style="font-style:normal;font-variant:normal;font-weight:bold;font-stretch:normal;font-size:191.18507385px;line-height:125%;font-family:Ebrima;-inkscape-font-specification:'Ebrima Bold';letter-spacing:-16.22583008px;word-spacing:0px;fill:#373e48;fill-opacity:1;stroke:none;stroke-width:1px;stroke-linecap:butt;stroke-linejoin:miter;stroke-opacity:1"
         transform="scale(1.0498668,0.95250178)">
        <path
           id="path5234"
           style="font-style:normal;font-variant:normal;font-weight:bold;font-stretch:normal;font-family:Ebrima;-inkscape-font-specification:'Ebrima Bold';letter-spacing:-8.22274494px;word-spacing:0px;fill:#373e48;fill-opacity:1"
           d="m 547.26766,446.09805 -32.85993,0 -9.52192,-29.77931 -47.60956,0 -9.42856,29.77931 -32.67323,0 48.72979,-133.86689 35.75385,0 47.60956,133.86689 z m -49.2899,-52.93063 -14.37622,-44.99571 q -1.58699,-5.04101 -2.24045,-12.04242 l -0.74682,0 q -0.46676,5.88119 -2.3338,11.66902 l -14.56293,45.36911 34.26022,0 z" />
        <path
           id="path5236"
           style="font-style:normal;font-variant:normal;font-weight:bold;font-stretch:normal;font-family:Ebrima;-inkscape-font-specification:'Ebrima Bold';letter-spacing:-8.22274494px;word-spacing:0px;fill:#373e48;fill-opacity:1"
           d="m 636.03773,446.09805 -80.2828,0 0,-133.86689 77.20218,0 0,24.5516 -47.04945,0 0,29.77931 43.78213,0 0,24.45825 -43.78213,0 0,30.61949 50.13007,0 0,24.45824 z" />
        <path
           id="path5238"
           style="font-style:normal;font-variant:normal;font-weight:bold;font-stretch:normal;font-family:Ebrima;-inkscape-font-specification:'Ebrima Bold';letter-spacing:-8.22274494px;word-spacing:0px;fill:#373e48;fill-opacity:1"
           d="m 706.04402,448.43186 q -28.75244,0 -46.86274,-18.67042 -18.11031,-18.76377 -18.11031,-48.82314 0,-31.73971 18.39036,-51.34365 18.39036,-19.60394 48.72979,-19.60394 28.65909,0 46.30264,18.76377 17.73689,18.76377 17.73689,49.47661 0,31.553 -18.39036,50.87688 -18.29701,19.32389 -47.79627,19.32389 z m 1.30693,-112.48927 q -15.86985,0 -25.20506,11.94907 -9.33521,11.85571 -9.33521,31.45965 0,19.884 9.33521,31.45965 9.33521,11.57566 24.45825,11.57566 15.5898,0 24.7383,-11.20225 9.14851,-11.2956 9.14851,-31.27295 0,-20.81751 -8.86845,-32.39317 -8.86845,-11.57566 -24.27155,-11.57566 z" />
        <path
           id="path5240"
           style="font-style:normal;font-variant:normal;font-weight:bold;font-stretch:normal;font-family:Ebrima;-inkscape-font-specification:'Ebrima Bold';letter-spacing:-8.22274494px;word-spacing:0px;fill:#373e48;fill-opacity:1"
           d="m 906.55657,446.09805 -30.43278,0 -55.17109,-84.11023 q -4.85431,-7.37481 -6.72135,-11.1089 l -0.37341,0 q 0.74682,7.09476 0.74682,21.65769 l 0,73.56144 -28.47239,0 0,-133.86689 32.48653,0 53.11734,81.49637 q 3.64073,5.50778 6.72135,10.9222 l 0.37341,0 q -0.74682,-4.66761 -0.74682,-18.39036 l 0,-74.02821 28.47239,0 0,133.86689 z" />
      </g>
      <g
         id="text3369-6-08-0"
         style="font-style:normal;font-variant:normal;font-weight:bold;font-stretch:normal;font-size:128.76152039px;line-height:125%;font-family:Ebrima;-inkscape-font-specification:'Ebrima Bold';letter-spacing:-10.9279623px;word-spacing:0px;display:inline;fill:#373e48;fill-opacity:1;stroke:none;stroke-width:1px;stroke-linecap:butt;stroke-linejoin:miter;stroke-opacity:1"
         transform="scale(1.0073396,0.99271387)">
        <path
           id="path5243"
           style="fill:#444444;fill-opacity:1"
           d="m 450.84457,447.10954 -6.50244,0 0,18.61699 -5.15107,0 0,-18.61699 -6.47064,0 0,-4.18128 18.12415,0 0,4.18128 z" />
        <path
           id="path5245"
           style="fill:#444444;fill-opacity:1"
           d="m 473.64284,465.72653 -5.15108,0 0,-9.28465 -9.44363,0 0,9.28465 -5.13518,0 0,-22.79827 5.13518,0 0,9.09387 9.44363,0 0,-9.09387 5.15108,0 0,22.79827 z" />
        <path
           id="path5247"
           style="fill:#444444;fill-opacity:1"
           d="m 492.51421,465.72653 -13.6726,0 0,-22.79827 13.14795,0 0,4.18128 -8.01278,0 0,5.07158 7.45634,0 0,4.16537 -7.45634,0 0,5.21467 8.53743,0 0,4.16537 z" />
        <path
           id="path5249"
           style="fill:#2c89a0;fill-opacity:1"
           d="m 523.75451,455.85364 q 0,10.27035 -9.57082,10.27035 -9.28465,0 -9.28465,-10.03187 l 0,-13.16386 5.15108,0 0,13.22745 q 0,5.53263 4.32435,5.53263 4.24487,0 4.24487,-5.34185 l 0,-13.41823 5.13517,0 0,12.92538 z" />
        <path
           id="path5251"
           style="fill:#2c89a0;fill-opacity:1"
           d="m 549.20781,465.72653 -5.18287,0 -9.39594,-14.32443 q -0.82671,-1.25598 -1.14468,-1.89191 l -0.0636,0 q 0.12718,1.20828 0.12718,3.68842 l 0,12.52792 -4.849,0 0,-22.79827 5.53263,0 9.04618,13.87928 q 0.62004,0.93801 1.14468,1.86011 l 0.0636,0 q -0.12719,-0.79492 -0.12719,-3.13198 l 0,-12.60741 4.849,0 0,22.79827 z" />
        <path
           id="path5253"
           style="fill:#2c89a0;fill-opacity:1"
           d="m 570.46394,447.10954 -6.50244,0 0,18.61699 -5.15107,0 0,-18.61699 -6.47064,0 0,-4.18128 18.12415,0 0,4.18128 z" />
        <path
           id="path5255"
           style="fill:#2c89a0;fill-opacity:1"
           d="m 592.65807,465.72653 -5.8983,0 -3.54534,-5.8665 q -0.39746,-0.66773 -0.76312,-1.19238 -0.36566,-0.52464 -0.74722,-0.89031 -0.36567,-0.38156 -0.77902,-0.57234 -0.39746,-0.20668 -0.87442,-0.20668 l -1.38315,0 0,8.72821 -5.13518,0 0,-22.79827 8.13997,0 q 8.29895,0 8.29895,6.20037 0,1.19238 -0.36566,2.20987 -0.36566,1.0016 -1.0334,1.81242 -0.66773,0.81081 -1.62163,1.39905 -0.938,0.58824 -2.09859,0.92211 l 0,0.0636 q 0.50875,0.15899 0.9857,0.52465 0.47695,0.34976 0.92211,0.82672 0.44515,0.47695 0.84261,1.03339 0.41336,0.54054 0.74723,1.06519 l 4.30846,6.74091 z m -13.99057,-18.95086 0,6.34345 2.22577,0 q 1.65343,0 2.65503,-0.9539 1.01749,-0.9698 1.01749,-2.40066 0,-2.98889 -3.57713,-2.98889 l -2.32116,0 z" />
        <path
           id="path5257"
           style="fill:#2c89a0;fill-opacity:1"
           d="m 614.82041,465.72653 -5.59623,0 -1.62164,-5.07158 -8.10817,0 -1.60573,5.07158 -5.56443,0 8.29895,-22.79827 6.08908,0 8.10817,22.79827 z m -8.39435,-9.01438 -2.44835,-7.66301 q -0.27027,-0.85852 -0.38156,-2.05089 l -0.12718,0 q -0.0795,1.00159 -0.39746,1.98729 l -2.48015,7.72661 5.8347,0 z" />
        <path
           id="path5259"
           style="fill:#2c89a0;fill-opacity:1"
           d="m 634.00975,464.91571 q -2.49605,1.20828 -6.51834,1.20828 -5.24646,0 -8.25125,-3.08428 -3.0048,-3.08429 -3.0048,-8.21946 0,-5.46904 3.37046,-8.8713 3.38635,-3.40225 8.7759,-3.40225 3.33866,0 5.62803,0.84262 l 0,4.94439 q -2.28937,-1.36726 -5.21467,-1.36726 -3.21147,0 -5.18287,2.01909 -1.9714,2.0191 -1.9714,5.46904 0,3.30687 1.86011,5.27826 1.86011,1.9555 5.00799,1.9555 3.00479,0 5.50084,-1.46265 l 0,4.69002 z" />
        <path
           id="path5261"
           style="fill:#2c89a0;fill-opacity:1"
           d="m 651.68873,465.72653 -13.6726,0 0,-22.79827 13.14796,0 0,4.18128 -8.01278,0 0,5.07158 7.45633,0 0,4.16537 -7.45633,0 0,5.21467 8.53742,0 0,4.16537 z" />
        <path
           id="path5263"
           style="fill:#2c89a0;fill-opacity:1"
           d="m 675.42501,465.72653 -5.59623,0 -1.62164,-5.07158 -8.10817,0 -1.60573,5.07158 -5.56444,0 8.29896,-22.79827 6.08907,0 8.10818,22.79827 z m -8.39435,-9.01438 -2.44835,-7.66301 q -0.27027,-0.85852 -0.38156,-2.05089 l -0.12718,0 q -0.0795,1.00159 -0.39746,1.98729 l -2.48015,7.72661 5.8347,0 z" />
        <path
           id="path5265"
           style="fill:#2c89a0;fill-opacity:1"
           d="m 678.27082,465.72653 0,-22.79827 8.29895,0 q 3.81561,0 5.8665,1.39906 2.05089,1.39906 2.05089,3.9428 0,1.84421 -1.25597,3.22737 -1.24008,1.38316 -3.17968,1.9237 l 0,0.0636 q 2.43245,0.30207 3.87921,1.79652 1.46265,1.49445 1.46265,3.64073 0,3.13198 -2.24168,4.97619 -2.24167,1.82831 -6.12087,1.82831 l -8.76,0 z m 5.13517,-19.01445 0,5.40544 2.25757,0 q 1.58984,0 2.49605,-0.76312 0.9221,-0.77902 0.9221,-2.13038 0,-2.51194 -3.75202,-2.51194 l -1.9237,0 z m 0,9.22105 0,6.00959 2.78222,0 q 1.78061,0 2.78221,-0.82672 1.0175,-0.82671 1.0175,-2.25757 0,-1.36726 -1.0016,-2.14628 -0.9857,-0.77902 -2.76632,-0.77902 l -2.81401,0 z" />
        <path
           id="path5267"
           style="fill:#2c89a0;fill-opacity:1"
           d="m 712.7067,465.72653 -13.57721,0 0,-22.79827 5.13517,0 0,18.6329 8.44204,0 0,4.16537 z" />
        <path
           id="path5269"
           style="fill:#2c89a0;fill-opacity:1"
           d="m 729.46359,465.72653 -13.6726,0 0,-22.79827 13.14795,0 0,4.18128 -8.01278,0 0,5.07158 7.45634,0 0,4.16537 -7.45634,0 0,5.21467 8.53743,0 0,4.16537 z" />
        <path
           id="path5271"
           style="fill:#444444;fill-opacity:1"
           d="m 742.11869,465.72653 0,-22.79827 8.29895,0 q 3.81561,0 5.8665,1.39906 2.05089,1.39906 2.05089,3.9428 0,1.84421 -1.25597,3.22737 -1.24008,1.38316 -3.17968,1.9237 l 0,0.0636 q 2.43245,0.30207 3.87921,1.79652 1.46265,1.49445 1.46265,3.64073 0,3.13198 -2.24168,4.97619 -2.24167,1.82831 -6.12087,1.82831 l -8.76,0 z m 5.13517,-19.01445 0,5.40544 2.25757,0 q 1.58984,0 2.49605,-0.76312 0.9221,-0.77902 0.9221,-2.13038 0,-2.51194 -3.75202,-2.51194 l -1.9237,0 z m 0,9.22105 0,6.00959 2.78222,0 q 1.78061,0 2.78221,-0.82672 1.0175,-0.82671 1.0175,-2.25757 0,-1.36726 -1.0016,-2.14628 -0.9857,-0.77902 -2.76632,-0.77902 l -2.81401,0 z" />
        <path
           id="path5273"
           style="fill:#444444;fill-opacity:1"
           d="m 776.55457,465.72653 -13.57721,0 0,-22.79827 5.13517,0 0,18.6329 8.44204,0 0,4.16537 z" />
        <path
           id="path5275"
           style="fill:#444444;fill-opacity:1"
           d="m 789.27327,466.12399 q -4.8967,0 -7.98098,-3.17967 -3.08429,-3.19558 -3.08429,-8.31485 0,-5.40545 3.13198,-8.74411 3.13198,-3.33866 8.29896,-3.33866 4.8808,0 7.88559,3.19557 3.02069,3.19558 3.02069,8.42614 0,5.37365 -3.13198,8.66462 -3.11608,3.29096 -8.13997,3.29096 z m 0.22258,-19.15754 q -2.70272,0 -4.29256,2.03499 -1.58984,2.0191 -1.58984,5.35775 0,3.38636 1.58984,5.35776 1.58984,1.97139 4.16537,1.97139 2.65503,0 4.21307,-1.9078 1.55804,-1.9237 1.55804,-5.32596 0,-3.54533 -1.51034,-5.51673 -1.51035,-1.9714 -4.13358,-1.9714 z" />
        <path
           id="path5277"
           style="fill:#444444;fill-opacity:1"
           d="m 820.65667,464.91571 q -2.49604,1.20828 -6.51833,1.20828 -5.24646,0 -8.25126,-3.08428 -3.00479,-3.08429 -3.00479,-8.21946 0,-5.46904 3.37046,-8.8713 3.38635,-3.40225 8.7759,-3.40225 3.33866,0 5.62802,0.84262 l 0,4.94439 q -2.28936,-1.36726 -5.21466,-1.36726 -3.21148,0 -5.18287,2.01909 -1.9714,2.0191 -1.9714,5.46904 0,3.30687 1.86011,5.27826 1.86011,1.9555 5.00799,1.9555 3.00479,0 5.50083,-1.46265 l 0,4.69002 z" />
        <path
           id="path5279"
           style="fill:#444444;fill-opacity:1"
           d="m 843.61392,465.72653 -6.48654,0 -6.64552,-9.90469 q -0.19078,-0.28617 -0.60413,-1.25597 l -0.0795,0 0,11.16066 -5.13517,0 0,-22.79827 5.13517,0 0,10.7791 0.0795,0 q 0.19078,-0.44515 0.63593,-1.27187 l 6.29576,-9.50723 6.12087,0 -7.94919,10.87449 8.63282,11.92378 z" />
        <path
           id="path5281"
           style="fill:#444444;fill-opacity:1"
           d="m 862.11963,464.91571 q -2.49605,1.20828 -6.51834,1.20828 -5.24646,0 -8.25126,-3.08428 -3.00479,-3.08429 -3.00479,-8.21946 0,-5.46904 3.37046,-8.8713 3.38635,-3.40225 8.7759,-3.40225 3.33866,0 5.62803,0.84262 l 0,4.94439 q -2.28937,-1.36726 -5.21467,-1.36726 -3.21147,0 -5.18287,2.01909 -1.9714,2.0191 -1.9714,5.46904 0,3.30687 1.86011,5.27826 1.86011,1.9555 5.00799,1.9555 3.00479,0 5.50084,-1.46265 l 0,4.69002 z" />
        <path
           id="path5283"
           style="fill:#444444;fill-opacity:1"
           d="m 885.85589,465.72653 -5.15107,0 0,-9.28465 -9.44363,0 0,9.28465 -5.13518,0 0,-22.79827 5.13518,0 0,9.09387 9.44363,0 0,-9.09387 5.15107,0 0,22.79827 z" />
        <path
           id="path5285"
           style="fill:#444444;fill-opacity:1"
           d="m 911.10251,465.72653 -5.59623,0 -1.62163,-5.07158 -8.10817,0 -1.60574,5.07158 -5.56443,0 8.29895,-22.79827 6.08908,0 8.10817,22.79827 z m -8.39434,-9.01438 -2.44835,-7.66301 q -0.27027,-0.85852 -0.38156,-2.05089 l -0.12719,0 q -0.0795,1.00159 -0.39746,1.98729 l -2.48014,7.72661 5.8347,0 z" />
        <path
           id="path5287"
           style="fill:#444444;fill-opacity:1"
           d="m 920.99132,442.92826 0,3.9746 -1.90781,0 0,14.84908 1.90781,0 0,3.97459 -8.95079,0 0,-3.97459 1.90781,0 0,-14.84908 -1.90781,0 0,-3.9746 8.95079,0 z" />
        <path
           id="path5289"
           style="fill:#444444;fill-opacity:1"
           d="m 944.75936,465.72653 -5.18287,0 -9.39594,-14.32443 q -0.82671,-1.25598 -1.14468,-1.89191 l -0.0636,0 q 0.12719,1.20828 0.12719,3.68842 l 0,12.52792 -4.84901,0 0,-22.79827 5.53264,0 9.04617,13.87928 q 0.62004,0.93801 1.14468,1.86011 l 0.0636,0 q -0.12719,-0.79492 -0.12719,-3.13198 l 0,-12.60741 4.849,0 0,22.79827 z" />
      </g>
    </g>
  </g>
</svg>
