<?xml version="1.0" encoding="UTF-8" standalone="no"?>
<!-- Generator: Adobe Illustrator 18.1.1, SVG Export Plug-In . SVG Version: 6.00 Build 0)  -->

<svg
   xmlns:dc="http://purl.org/dc/elements/1.1/"
   xmlns:cc="http://creativecommons.org/ns#"
   xmlns:rdf="http://www.w3.org/1999/02/22-rdf-syntax-ns#"
   xmlns:svg="http://www.w3.org/2000/svg"
   xmlns="http://www.w3.org/2000/svg"
   xmlns:sodipodi="http://sodipodi.sourceforge.net/DTD/sodipodi-0.dtd"
   xmlns:inkscape="http://www.inkscape.org/namespaces/inkscape"
   version="1.1"
   id="Layer_1"
   x="0px"
   y="0px"
   viewBox="0 0 100 100"
   enable-background="new 0 0 100 100"
   xml:space="preserve"
   inkscape:version="0.91 r13725"
   sodipodi:docname="icon_secure.svg"><metadata
     id="metadata15"><rdf:RDF><cc:Work
         rdf:about=""><dc:format>image/svg+xml</dc:format><dc:type
           rdf:resource="http://purl.org/dc/dcmitype/StillImage" /></cc:Work></rdf:RDF></metadata><defs
     id="defs13" /><sodipodi:namedview
     pagecolor="#ffffff"
     bordercolor="#666666"
     borderopacity="1"
     objecttolerance="10"
     gridtolerance="10"
     guidetolerance="10"
     inkscape:pageopacity="0"
     inkscape:pageshadow="2"
     inkscape:window-width="983"
     inkscape:window-height="687"
     id="namedview11"
     showgrid="false"
     inkscape:zoom="4.72"
     inkscape:cx="50"
     inkscape:cy="46.610169"
     inkscape:window-x="0"
     inkscape:window-y="0"
     inkscape:window-maximized="0"
     inkscape:current-layer="Layer_1" /><path
     style="fill:#08b4da;stroke:none;stroke-width:1px;stroke-linecap:butt;stroke-linejoin:miter;stroke-opacity:1;fill-opacity:1"
     d="m 32.20339,57.311352 0,-14.807292 2.012712,-0.129149 2.012712,-0.129148 0.234891,-5.084746 c 0.20227,-4.378583 0.388035,-5.378981 1.337607,-7.20339 1.308941,-2.514863 2.825469,-4.016152 5.419027,-5.364574 2.675093,-1.390814 8.288635,-1.418294 10.854436,-0.05314 2.804761,1.492297 4.277638,2.964908 5.534172,5.53317 1.016289,2.077221 1.207964,3.076161 1.398767,7.289871 l 0.2211,4.882807 2.012711,0.129148 2.012712,0.129149 0,14.807292 0,14.807292 -16.525423,0 -16.525424,0 0,-14.807292 z M 56.355932,38.036059 c 0,-4.86558 -0.341256,-6.208186 -2.039668,-8.024687 -2.138333,-2.287007 -5.742011,-3.039228 -8.679714,-1.811777 -1.844482,0.770674 -4.021362,3.330654 -4.279703,5.032871 -0.406749,2.68008 -0.670286,8.668784 -0.39365,8.94542 0.153858,0.153858 3.680164,0.279741 7.836238,0.279741 l 7.556497,0 0,-4.421568 z"
     id="path4145"
     inkscape:connector-curvature="0" /><path
     style="fill:#08b4da;stroke:none;stroke-width:1px;stroke-linecap:butt;stroke-linejoin:miter;stroke-opacity:1;fill-opacity:1"
     d="M 43.88928,98.363568 C 28.827,93.263386 16.56138,81.332225 11.245761,66.610169 8.4176298,58.777424 8.362815,58.221525 8.1668091,35.385274 L 7.9879067,14.541734 9.3964958,14.327106 c 0.7747242,-0.118045 2.8386732,-0.325482 4.5865552,-0.46097 3.87226,-0.300161 11.824527,-2.04484 15.872956,-3.48243 4.541577,-1.6127068 11.912668,-5.2948785 15.697032,-7.8413317 l 3.392023,-2.28245108 3.811366,2.46554488 c 9.390123,6.0743993 21.254979,10.3114819 31.141877,11.1211359 1.747881,0.143138 3.79767,0.355441 4.555085,0.471786 l 1.377118,0.211536 0,19.416821 c 0,20.944406 -0.178728,23.245834 -2.365915,30.464829 -1.358356,4.483365 -5.04533,11.725043 -7.910953,15.538085 -4.955382,6.593708 -11.08767,11.70911 -18.536691,15.462843 -4.285144,2.159386 -10.315,4.254204 -12.204077,4.239788 -0.628859,-0.0048 -2.844476,-0.584724 -4.923592,-1.288724 z m 8.265313,-6.780856 C 68.081797,86.456339 79.649826,72.898314 82.405233,56.128199 82.961064,52.745275 83.0625,49.138068 82.961945,36.33138 L 82.838983,20.671235 78.71814,20.153811 C 69.135326,18.950567 59.428585,15.474832 51.654936,10.463173 L 48.860717,8.6617449 46.570189,10.125438 C 38.180942,15.486332 27.000242,19.452303 17.79661,20.33188 l -3.177966,0.303713 0.0037,16.737288 c 0.0032,14.571098 0.103433,17.203433 0.774508,20.338983 1.795861,8.39103 5.50813,15.606394 11.063809,21.504208 5.502369,5.841216 10.948154,9.478614 18.030895,12.043356 3.879778,1.404915 4.25355,1.420682 7.663068,0.323284 z"
     id="path4147"
     inkscape:connector-curvature="0" /><path
     style="fill:#08b4da;stroke:none;stroke-width:1px;stroke-linecap:butt;stroke-linejoin:miter;stroke-opacity:1;fill-opacity:1"
     d="M 44.491525,87.191758 C 30.018399,82.118182 20.105133,70.103415 17.828491,54.876462 c -0.2551,-1.706195 -0.45561,-9.277854 -0.45561,-17.204774 l 0,-14.157505 3.163918,-0.267449 c 8.852803,-0.748336 18.245618,-4.018876 25.308595,-8.812349 1.327255,-0.900776 2.529455,-1.637775 2.671555,-1.637775 0.1421,0 1.3443,0.736834 2.671555,1.637408 7.158456,4.857183 19.453165,8.94629 26.922297,8.954109 l 1.627754,0.0017 -0.188708,15.995762 c -0.217008,18.395043 -0.429949,19.829035 -4.074165,27.436441 -4.672127,9.753191 -12.734678,16.869233 -23.113458,20.400043 -3.5554,1.209538 -4.342499,1.206504 -7.870699,-0.03031 z m 7.914203,-2.264177 c 11.59323,-4.106602 19.935098,-13.028823 23.725683,-25.376297 1.14286,-3.722763 1.151076,-3.840975 1.313322,-18.894504 L 77.608,25.508475 l -1.017466,0 c -2.36661,0 -9.314801,-1.443094 -13.310928,-2.764594 -4.537743,-1.500608 -8.586487,-3.40873 -12.397219,-5.842653 l -2.295579,-1.466192 -2.789167,1.715683 c -6.482424,3.987492 -13.312204,6.464262 -21.672208,7.859267 l -4.422043,0.737892 -0.123135,11.638773 c -0.06772,6.401325 0.07368,13.490585 0.314225,15.75391 1.28495,12.090176 7.811959,22.390206 18.226937,28.763248 2.389713,1.462293 9.002065,4.158975 10.258888,4.183831 0.390947,0.0077 2.202387,-0.514297 4.025423,-1.160059 z"
     id="path4149"
     inkscape:connector-curvature="0" /></svg>