<?xml version="1.0" encoding="UTF-8" standalone="no"?>
<!-- Generator: Adobe Illustrator 18.1.1, SVG Export Plug-In . SVG Version: 6.00 Build 0)  -->

<svg
   xmlns:dc="http://purl.org/dc/elements/1.1/"
   xmlns:cc="http://creativecommons.org/ns#"
   xmlns:rdf="http://www.w3.org/1999/02/22-rdf-syntax-ns#"
   xmlns:svg="http://www.w3.org/2000/svg"
   xmlns="http://www.w3.org/2000/svg"
   xmlns:sodipodi="http://sodipodi.sourceforge.net/DTD/sodipodi-0.dtd"
   xmlns:inkscape="http://www.inkscape.org/namespaces/inkscape"
   version="1.1"
   id="Layer_1"
   x="0px"
   y="0px"
   viewBox="0 0 100 100"
   enable-background="new 0 0 100 100"
   xml:space="preserve"
   inkscape:version="0.91 r13725"
   sodipodi:docname="icon_untraceable.svg"><metadata
     id="metadata15"><rdf:RDF><cc:Work
         rdf:about=""><dc:format>image/svg+xml</dc:format><dc:type
           rdf:resource="http://purl.org/dc/dcmitype/StillImage" /></cc:Work></rdf:RDF></metadata><defs
     id="defs13" /><sodipodi:namedview
     pagecolor="#ffffff"
     bordercolor="#666666"
     borderopacity="1"
     objecttolerance="10"
     gridtolerance="10"
     guidetolerance="10"
     inkscape:pageopacity="0"
     inkscape:pageshadow="2"
     inkscape:window-width="942"
     inkscape:window-height="626"
     id="namedview11"
     showgrid="false"
     inkscape:zoom="2.36"
     inkscape:cx="-11.440678"
     inkscape:cy="50"
     inkscape:window-x="0"
     inkscape:window-y="0"
     inkscape:window-maximized="0"
     inkscape:current-layer="Layer_1" /><path
     style="fill:#08b4da;fill-opacity:1"
     d="M 62.415254,86.075581 C 60.867244,85.259492 59.327209,83.893136 58.671726,82.754237 58.371084,82.231873 58.101089,78.655839 57.9679,73.432203 57.724954,63.903889 57.398465,62.737747 54.539838,61.187941 53.185795,60.453846 52.994988,60.105749 52.333322,57.162517 50.579181,49.359711 45.703374,42.50647 38.822165,38.171775 l -1.982919,-1.249106 7.072208,-7.063029 c 6.006336,-5.998541 7.264086,-7.06303 8.345347,-7.06303 1.113457,0 3.600839,2.329924 19.831745,18.576345 l 18.558607,18.576344 -0.132899,10.799074 -0.132898,10.799076 -1.137297,1.717314 c -0.68439,1.033432 -1.876669,2.075241 -2.993949,2.616106 -1.740148,0.842389 -2.506356,0.897728 -12.210163,0.881826 -8.598756,-0.01409 -10.568952,-0.130542 -11.624693,-0.687114 z"
     id="path4145"
     inkscape:connector-curvature="0" /><path
     style="fill:#08b4da;stroke:none;stroke-width:1px;stroke-linecap:butt;stroke-linejoin:miter;stroke-opacity:1;fill-opacity:1"
     d="M 21.23828,86.336326 C 13.076106,84.891597 6.3866597,79.878415 2.8885717,72.584746 0.99769212,68.642178 0.33898305,65.850588 0.33898305,61.779661 c 0,-4.100146 0.6593314,-6.861371 2.61772325,-10.962805 4.4481594,-9.315722 14.8435667,-14.912925 25.2536667,-13.597342 5.705105,0.720986 12.010677,4.017884 15.559059,8.135126 8.569843,9.943729 8.038475,24.733366 -1.220504,33.97039 -5.412949,5.40011 -14.158136,8.277313 -21.310648,7.011296 z M 35.531945,65.580659 c 2.272625,-1.216272 2.583266,-4.915307 0.571498,-6.805265 -1.084948,-1.019255 -1.105515,-1.021157 -11.04522,-1.021157 l -9.958248,0 -1.284158,1.437224 c -1.115413,1.248363 -1.253489,1.665879 -1.050765,3.177303 0.155312,1.157939 0.604459,2.059258 1.342545,2.694133 1.080965,0.929806 1.356931,0.954052 10.859142,0.954052 5.876819,0 10.073834,-0.173316 10.565206,-0.43629 z"
     id="path3343"
     inkscape:connector-curvature="0" /><path
     style="fill:#08b4da;fill-opacity:1"
     d="M 96.101695,60.217208 C 95.752119,60.093814 85.791653,50.339778 73.967326,38.54158 l -21.498773,-21.451269 -9.433429,9.39087 c -6.19593,6.167978 -9.845997,9.492846 -10.63557,9.688005 -1.755697,0.433956 -3.419408,-0.917319 -3.589682,-2.91556 C 28.682989,31.764597 28.998126,31.395433 39.317427,20.944664 45.168526,15.019022 50.499121,9.9457141 51.163194,9.6706459 52.140192,9.26596 52.601268,9.292725 53.579368,9.8109027 c 0.664822,0.3522093 4.638985,4.0854523 8.831471,8.2960943 4.192488,4.210643 7.7677,7.655715 7.944915,7.655715 0.177216,0 0.322212,-2.09003 0.322212,-4.644511 0,-4.232235 0.08232,-4.721201 0.927356,-5.508474 1.182788,-1.101935 2.475407,-1.097199 3.888381,0.01425 l 1.116466,0.878214 0,7.8976 0,7.897599 11.652543,11.70083 c 9.99533,10.036751 11.650627,11.877107 11.639068,12.940289 -0.0074,0.681704 -0.245763,1.542004 -0.529661,1.911776 -0.46406,0.604419 -2.164301,1.70894 -2.501043,1.624741 -0.07358,-0.01839 -0.419805,-0.134415 -0.769381,-0.257813 z"
     id="path4147"
     inkscape:connector-curvature="0" /></svg>